<?xml version="1.0" encoding="UTF-8"?>
<svg width="1554px" height="811px" viewBox="0 0 1554 811" version="1.1" xmlns="http://www.w3.org/2000/svg" xmlns:xlink="http://www.w3.org/1999/xlink">
    <!-- Generator: Sketch 53 (72520) - https://sketchapp.com -->
    <title>main image</title>
    <desc>Created with Sketch.</desc>
    <defs>
        <filter x="-3.7%" y="-6.3%" width="107.3%" height="112.4%" filterUnits="objectBoundingBox" id="filter-1">
            <feOffset dx="0" dy="11" in="SourceAlpha" result="shadowOffsetOuter1"></feOffset>
            <feGaussianBlur stdDeviation="4.5" in="shadowOffsetOuter1" result="shadowBlurOuter1"></feGaussianBlur>
            <feColorMatrix values="0 0 0 0 0   0 0 0 0 0   0 0 0 0 0  0 0 0 0.5 0" type="matrix" in="shadowBlurOuter1" result="shadowMatrixOuter1"></feColorMatrix>
            <feMerge>
                <feMergeNode in="shadowMatrixOuter1"></feMergeNode>
                <feMergeNode in="SourceGraphic"></feMergeNode>
            </feMerge>
        </filter>
    </defs>
    <g id="Page-1" stroke="none" stroke-width="1" fill="none" fill-rule="evenodd">
        <g id="main-image" transform="translate(-28.000000, -156.000000)">
            <g id="lines" transform="translate(28.549420, 155.704538)">
                <g id="lines-inactive" opacity="0.326915923" stroke-width="2">
                    <g id="northernLine" transform="translate(661.644193, 26.083591)">
                        <path d="M77.6343319,705.832346 L276.988714,505.392614 C282.077024,500.619913 284.621179,494.800932 284.621179,487.935672 C284.621179,481.070411 284.621179,405.554574 284.621179,261.38816 C286.70359,249.472138 278.789005,243.514127 260.877424,243.514127 C242.965842,243.514127 211.667763,243.514127 166.983187,243.514127 C157.524045,243.651127 152.087145,239.601994 150.672485,231.366725 C149.257825,223.131457 149.257825,208.826547 150.672485,188.451996 C148.339413,178.197235 145.037694,173.069855 140.767329,173.069855 C136.496965,173.069855 133.533182,177.452357 131.87598,186.217362 L131.87598,224.603454 C131.474868,233.369474 129.029658,239.673031 124.54035,243.514127 C117.806387,249.27577 109.806387,254.6325 109.806387,270.510889 C109.806387,281.096481 109.806387,416.140703 109.806387,675.643555 L0.68854107,783.747884" stroke="#150202"></path>
                        <path d="M140.570125,170.389299 L140.570125,148.789597 L151.375794,136.62113 L185.431213,101.922854 C189.32423,98.12195 191.270739,93.2818578 191.270739,87.4025772 C191.270739,81.5232966 191.270739,52.4875915 191.270739,0.295461988" id="northernLine2" stroke="#070000"></path>
                        <path d="M140.570125,147.55697 L9.45057995,16.0309127" id="northernLine3" stroke="#020000"></path>
                    </g>
                    <path d="M405.118285,4.56689097 L405.118285,10.9382524 L405.118285,210.550515 C403.604872,220.147765 407.168906,229.155075 415.810386,237.572443 C424.451867,245.989812 431.367687,252.841695 436.557849,258.128093 C442.431142,263.601689 449.973157,266.338488 459.183894,266.338488 C468.394631,266.338488 514.396836,266.338488 597.190509,266.338488 C608.488425,268.067119 616.986197,271.775729 622.683826,277.464319 C628.381455,283.152909 649.555249,304.499357 686.205206,341.503665 C691.381253,347.226605 693.969276,353.023669 693.969276,358.894857 C693.969276,364.766046 693.969276,374.556332 693.969276,388.265716 C697.339221,394.707475 700.599335,399.28194 703.749619,401.989111 C706.899903,404.696282 730.935618,428.66872 775.856764,473.906425 C782.55688,479.426879 785.906937,484.676599 785.906937,489.655584 C785.906937,494.634569 785.906937,545.151649 785.906937,641.206826 C786.643661,646.505811 789.061741,650.983101 793.161177,654.638696" id="bakerlooLine" stroke="#732906"></path>
                    <path d="M403.377341,494.694839 L403.377341,346.841536 C403.155494,339.855389 405.241743,334.109142 409.636086,329.602793 C414.03043,325.096445 428.934196,310.14232 454.347385,284.740418 C458.043617,280.387848 463.9774,278.211562 472.148731,278.211562 C480.320063,278.211562 610.834115,278.211562 863.690887,278.211562 C872.196837,277.978804 878.966541,280.447642 884,285.618076 C889.033459,290.788509 904.659669,306.439263 930.878631,332.570338 C934.221113,336.304897 939.037192,338.172176 945.32687,338.172176 C951.616547,338.172176 976.649447,337.891462 1020.42557,337.330035 L1039.9092,337.330035 C1051.50616,340.583427 1057.30464,346.048018 1057.30464,353.723808 C1057.30464,361.399598 1057.30464,371.819322 1057.30464,384.982979 C1057.50811,390.196352 1059.3179,394.294494 1062.73402,397.277406 C1066.15014,400.260317 1067.20708,401.303112 1065.90484,400.405791 C1071.9461,406.903345 1078.53616,407.165398 1085.675,401.19195 C1092.81384,395.218502 1115.69233,372.852686 1154.31046,334.094501 C1159.60971,328.598608 1167.02525,325.850661 1176.55709,325.850661 C1186.08892,325.850661 1221.54536,325.850661 1282.92639,325.850661 C1301.15133,325.850661 1310.2638,325.850661 1310.2638,325.850661 C1310.2638,325.850661 1316.33577,327.228547 1322.70029,321.269145 C1326.9433,317.29621 1348.24224,296.196315 1386.59712,257.96946" id="metropolitanLine" stroke="#061B73"></path>
                    <path d="M1044.46715,0.69914319 L1044.46715,55.5480407 C1045.3691,64.3750347 1042.16422,72.1923545 1034.85251,79 C1027.5408,85.8076455 960.139278,152.597099 832.647936,279.36836 C827.833594,282.100824 825.426423,290.769892 825.426423,305.375564 C825.426423,319.981236 825.426423,336.954536 825.426423,356.295462 C823.735582,363.276683 819.818754,369.493844 813.67594,374.946944 C807.533125,380.400044 791.583314,396.197232 765.826506,422.33851 C760.187034,426.749434 754.578759,428.954896 749.001683,428.954896 C743.424606,428.954896 711.212339,428.954896 652.36488,428.954896 C647.137221,429.791003 643.349211,431.586876 641.000849,434.342515 C638.652487,437.098153 619.469658,455.925891 583.452363,490.825729 C580.534495,495.191187 574.934162,497.373916 566.651364,497.373916 C558.368566,497.373916 439.932269,497.373916 211.342473,497.373916 C205.469299,497.029035 200.499733,498.533349 196.433777,501.886855 C192.36782,505.240362 127.117388,570.250853 0.682478517,696.918329" id="picadillyLine" stroke="#061B73"></path>
                </g>
                <g id="lines-active" filter="url(#filter-1)" transform="translate(408.000000, 79.000000)">
                    <path d="M897.99088,59 L897.99088,117.472519 C898.611843,125.121333 896.271226,131.768374 890.969032,137.413642 C885.666837,143.058909 855.820337,172.704712 801.42953,226.35105 C795.508089,231.886534 790.083246,234.654276 785.155001,234.654276 C780.226756,234.654276 738.724348,234.654276 660.647775,234.654276 C656.974832,234.307574 653.938032,234.781898 651.537375,236.077248 C649.083444,237.401345 646.421502,238.355624 643.423791,241.429112 C636.027135,249.012742 609.481856,275.294714 563.787952,320.275026 C561.587702,322.141285 559.84538,323.426281 558.560986,324.130011 C555.314066,325.909028 551.589217,327.049861 545.678839,327.049861 C536.261483,327.049861 521.740915,327.049861 502.117134,327.049861 C499.997456,327.049016 498.495157,327.049016 497.610238,327.049861 C493.977552,327.05333 490.340408,325.494999 484.942038,320.275026 C473.88565,309.584011 469.748189,295.93399 455.54239,295.93399 C446.071858,295.93399 353.515028,295.93399 177.871902,295.93399 L65,295.93399" id="centralLine" stroke="#F20505" stroke-width="8"></path>
                    <path d="M235.893096,220.183091 L235.893096,330.379102 C236.744129,334.422365 239.927814,339.416632 245.444151,345.361904 C250.960488,351.307176 282.871678,383.312355 341.177721,441.377443 C344.062072,444.07669 346.049187,446.18399 347.139065,447.699342 C349.663375,451.20911 351.456769,454.844645 351.456769,461.230617 C351.456769,477.013185 344.263757,495.28477 363.45058,495.28477 C376.241796,495.28477 407.833934,495.28477 458.226996,495.28477 C462.66463,496.196625 469.248803,492.396426 477.979513,483.884172 C486.710223,475.371919 501.227428,461.203009 521.531126,441.377443 C524.626901,437.862772 534.603489,436.105437 551.460889,436.105437 C568.31829,436.105437 635.392701,436.105437 752.684124,436.105437 L835.399588,436.105437 C845.011272,436.189906 853.792628,432.192429 861.743659,424.113006 C869.694689,416.033583 879.346072,406.01265 890.697809,394.050205 C893.894946,386.487731 895.493514,381.59193 895.493514,379.362803 C895.493514,377.133677 895.493514,322.167253 895.493514,214.463532 L895.493514,202.041801 C894.541354,194.355536 891.851547,188.331165 887.424093,183.96869 C882.996639,179.606215 876.134921,172.762712 866.838941,163.43818" id="jubileeLine" stroke="#979797" stroke-width="8"></path>
                    <g id="dlr" transform="translate(801.148270, 167.022220)" stroke="#B8DFE1" stroke-width="8">
                        <path d="M0.950579949,333.655781 L0.950579949,95.0582394 L0.950579949,85.5654615 C0.984165543,78.5237591 3.40261692,72.5202056 8.20593407,67.5548012 C13.0092512,62.5893968 29.5915671,46.3411388 57.9528817,18.8100272 C62.1858337,11.4449409 64.3023098,5.17493181 64.3023098,-2.84217094e-14" stroke-linecap="square"></path>
                        <path d="M0.950579949,497.845242 L0.950579949,328.394894" id="dlr2" fill="#D8D8D8" fill-rule="evenodd"></path>
                    </g>
                    <path d="M158.158596,210.765151 L117.425332,210.765151 C107.569853,214.341155 102.642114,221.317784 102.642114,231.695036 C102.642114,242.072289 102.642114,302.166479 102.642114,411.977605 L102.642114,417.530454 C98.4877908,426.230303 90.0376445,430.580227 77.2916749,430.580227 C64.5457052,430.580227 189.330504,430.148627 451.64607,429.285425 C456.07108,429.061473 459.495152,427.797151 461.918285,425.492461 C465.552985,422.035425 520.247206,367.043478 520.247206,367.043478 C520.247206,367.043478 521.574977,363.534536 530.916168,363.534536 C537.143628,363.534536 572.812899,363.241296 637.923981,362.654815 C642.613887,361.940041 646.588036,359.920894 649.846429,356.597372 C653.104822,353.27385 686.653949,320.020108 750.49381,256.836146 C751.048315,255.597673 755.479678,253.796896 763.787898,251.433814 C772.096118,249.070733 818.602292,249.070733 903.306422,251.433814 C910.190145,252.137888 916.218642,249.02411 921.391912,242.09248 C926.565182,235.160851 997.898681,163.923614 1135.39241,28.3807682" id="districtLine" stroke="#076109" stroke-width="6"></path>
                    <g id="circleLine" transform="translate(0.001938, 203.261179)" stroke="#F9C954" stroke-width="6">
                        <path d="M158.024143,10.4156183 L123.387975,10.4156183 C112.55608,11.7643909 107.140132,17.0204325 107.140132,26.1837432 C107.140132,35.347054 107.140132,93.8865656 107.140132,201.802278 C106.036433,215.421614 111.452381,222.231282 123.387975,222.231282 C135.32357,222.231282 193.66233,222.231282 298.404255,222.231282 L440.525953,222.231282 L455.514536,222.231282 L515.330689,162.238821 C519.147576,157.293735 525.234434,154.821191 533.591262,154.821191 C541.948091,154.821191 572.781275,154.821191 626.090817,154.821191 C637.604051,153.142421 643.360668,146.306438 643.360668,134.313243 C643.360668,122.320048 643.360668,102.227061 643.360668,74.0342833 C642.23785,64.1887885 633.40478,59.2660412 616.861458,59.2660412 C600.318136,59.2660412 572.561405,59.2660412 533.591262,59.2660412 C528.31784,59.455495 522.230982,55.740287 515.330689,48.1204171 C508.430396,40.5005472 495.700486,27.9322809 477.140958,10.4156183 C472.626651,3.47187276 463.395879,-2.84217094e-14 449.448642,-2.84217094e-14 C435.501405,-2.84217094e-14 328.443994,-2.84217094e-14 128.276407,-2.84217094e-14"></path>
                        <path d="M128.276407,-7.10542736e-14 L107,-7.10542736e-14 L64.9980625,-7.10542736e-14 C58.8388914,0.12795343 54.2250373,1.50708435 51.1565002,4.13739277 C48.0879631,6.76770119 32.8768399,21.9404326 5.52313059,49.6555869 C1.85249727,52.5621292 0.0171806119,57.2412503 0.0171806119,63.6929502 C0.0171806119,70.1446501 0.0171806119,116.518233 0.0171806119,202.813698 L0.0171806119,212.433661" id="circleLine2"></path>
                    </g>
                    <path d="M654.734019,1.00846864 C651.050381,0.496678434 646.470745,2.9210519 640.995111,8.28158905 C635.519477,13.6421262 622.485272,26.980592 601.892497,48.2969864 C598.04474,51.0896877 596.120861,56.0460532 596.120861,63.1660827 C596.120861,70.2861123 596.120861,93.1749665 596.120861,131.832645 C596.584446,136.358729 594.040589,141.451506 588.489289,147.110975 C582.937989,152.770445 577.240953,158.212847 571.398181,163.43818 C566.515083,168.934987 561.365291,171.68339 555.948804,171.68339 C550.532317,171.68339 507.247311,171.68339 426.093788,171.68339 C415.522187,171.502993 408.263151,173.758635 404.316678,178.450317 C400.370205,183.141998 351.212253,232.675182 256.84282,327.049867 C251.319762,332.003377 248.558233,336.751966 248.558233,341.295634 C248.558233,345.839302 248.558233,418.567564 248.558233,559.48042 C248.541272,566.219457 250.466106,571.644203 254.332734,575.754659 C258.199363,579.865114 295.055297,616.52538 364.900539,685.735457" id="victoriaLine" stroke="#3296E7" stroke-width="8"></path>
                </g>
            </g>
            <g id="line_text" transform="translate(816.000000, 384.000000)" font-family="F37Ginger-Bold, F37 Ginger" font-size="13" font-weight="bold">
                <text id="Circle-line" fill="#F9C954">
                    <tspan x="8.31225586" y="269">Circle line</tspan>
                </text>
                <text id="Victoria-line" fill="#4685EE">
                    <tspan x="92.5043945" y="13">Victoria line</tspan>
                </text>
                <text id="DLR" fill="#37A286">
                    <tspan x="377.342773" y="255">DLR</tspan>
                </text>
                <text id="District-line" fill="#076109">
                    <tspan x="188.941895" y="243">District line</tspan>
                </text>
                <text id="Central-line" fill="#FA0101">
                    <tspan x="304.177002" y="77">Central line</tspan>
                </text>
                <text id="Jubilee-line" fill="#726969">
                    <tspan x="14.8271484" y="338">Jubilee line</tspan>
                </text>
            </g>
            <g id="stations" transform="translate(535.000000, 253.000000)">
                <g id="Notting" transform="translate(0.000000, 244.000000)">
                    <text id="Notting-Hill-Gate" fill="#000000" font-family="F37Ginger-Bold, F37 Ginger" font-size="14" font-weight="bold">
                        <tspan x="38.5302734" y="14">Notting Hill Gate</tspan>
                    </text>
                    <g id="Oval" transform="translate(0.000000, 24.000000)" fill="#FFFFFF">
                        <circle stroke="#000000" stroke-width="2" cx="7" cy="7" r="7"></circle>
                        <circle id="Oval2" stroke="#050000" stroke-width="1" cx="7" cy="7" r="4"></circle>
                    </g>
                </g>
                <g id="Island" transform="translate(542.000000, 508.000000)">
                    <text id="Island-Gardens" font-family="F37Ginger-Bold, F37 Ginger" font-size="15" font-weight="bold" fill="#000000">
                        <tspan x="19.9819336" y="16">Island Gardens</tspan>
                    </text>
                    <g id="Oval" transform="translate(156.000000, 8.000000)" fill="#FFFFFF">
                        <circle stroke="#000000" stroke-width="2" cx="7" cy="7" r="7"></circle>
                        <circle id="Oval2" stroke="#050000" stroke-width="1" cx="7" cy="7" r="4"></circle>
                    </g>
                </g>
                <g id="Stratford" transform="translate(650.000000, 109.000000)">
                    <text font-family="F37Ginger-Bold, F37 Ginger" font-size="15" font-weight="bold" fill="#000000">
                        <tspan x="24.1196289" y="16">Stratford</tspan>
                    </text>
                    <g id="Oval" transform="translate(109.000000, 27.000000)" fill="#FFFFFF">
                        <circle stroke="#000000" stroke-width="2" cx="7" cy="7" r="7"></circle>
                        <circle id="Oval2" stroke="#050000" stroke-width="1" cx="7" cy="7" r="4"></circle>
                    </g>
                </g>
                <g id="Finsbury" transform="translate(520.000000, 0.000000)">
                    <g id="Oval" fill="#FFFFFF">
                        <circle stroke="#000000" stroke-width="2" cx="7" cy="7" r="7"></circle>
                        <circle id="Oval2" stroke="#050000" stroke-width="1" cx="7" cy="7" r="4"></circle>
                    </g>
                    <text id="Finsbury-Park" font-family="F37Ginger-Bold, F37 Ginger" font-size="15" font-weight="bold" fill="#000000">
                        <tspan x="34.1967773" y="18">Finsbury Park</tspan>
                    </text>
                </g>
                <g id="Brixton" transform="translate(258.000000, 659.000000)">
                    <text fill="#000000" font-family="F37Ginger-Bold, F37 Ginger" font-size="15" font-weight="bold">
                        <tspan x="38.1525879" y="16">Brixton</tspan>
                    </text>
                    <g id="Oval" transform="translate(0.000000, 1.000000)" fill="#FFFFFF">
                        <circle stroke="#000000" stroke-width="2" cx="7" cy="7" r="7"></circle>
                        <circle id="Oval2" stroke="#050000" stroke-width="1" cx="7" cy="7" r="4"></circle>
                    </g>
                </g>
            </g>
        </g>
    </g>
</svg>